<svg width="42" height="40" viewBox="0 0 42 40" fill="none" xmlns="http://www.w3.org/2000/svg">
<g clip-path="url(#clip0_406_48)">
<path d="M35.0702 0H7.71016C3.95462 0 0.910156 3.04446 0.910156 6.8V33.136C0.910156 36.8915 3.95462 39.936 7.71016 39.936H35.0702C38.8257 39.936 41.8702 36.8915 41.8702 33.136V6.8C41.8702 3.04446 38.8257 0 35.0702 0Z" fill="#470137"/>
<path d="M22.4427 10.5024L17.3318 18.9381L22.7998 27.8957C22.835 27.9584 22.8448 28.032 22.8273 28.1018C22.8188 28.1315 22.8006 28.1389 22.7726 28.14L22.7416 28.1395L22.7038 28.1386C22.6833 28.1386 22.6604 28.1395 22.635 28.1437H18.6926L18.6152 28.1424C18.4027 28.1368 18.2496 28.1064 18.1563 27.9506C17.7915 27.2399 17.4251 26.5301 17.0571 25.8211C16.7279 25.1888 16.3897 24.5612 16.0427 23.9384L15.8894 23.6642C15.4743 22.9265 15.0667 22.1846 14.6667 21.4386H14.6392C14.2697 22.1768 13.8896 22.9095 13.4988 23.6367C13.1048 24.3695 12.7155 25.0978 12.331 25.8211C11.9463 26.5451 11.5524 27.2641 11.1496 27.9781C11.0848 28.1237 10.9771 28.1541 10.8272 28.1591L10.7648 28.16H7.00044L6.98412 28.1605L6.93036 28.1653C6.90044 28.1671 6.88252 28.1607 6.87676 28.1155C6.86643 28.0485 6.88112 27.9801 6.91804 27.9232L12.2211 19.2128L7.05532 10.4752C7.00044 10.4023 6.99132 10.3427 7.0278 10.2967C7.04807 10.2732 7.07353 10.2548 7.10216 10.2428C7.13079 10.2309 7.16181 10.2258 7.19276 10.2279H11.067C11.1515 10.2232 11.236 10.2373 11.3144 10.2691C11.38 10.3064 11.4364 10.3581 11.4792 10.4203C11.8089 11.1531 12.1753 11.8859 12.5784 12.6184C12.9783 13.3463 13.3859 14.0699 13.8011 14.7891C14.2099 15.4973 14.5903 16.2214 14.9414 16.9599H14.9689C15.3287 16.2216 15.6997 15.4888 16.0817 14.7618C16.4569 14.0474 16.8417 13.3282 17.2356 12.6047C17.6246 11.8904 18.0047 11.1714 18.376 10.4479C18.3971 10.38 18.4348 10.3186 18.4859 10.2691C18.5537 10.2348 18.63 10.2205 18.7057 10.2279H22.3052C22.3383 10.2196 22.3732 10.2223 22.4046 10.2356C22.436 10.2489 22.4623 10.272 22.4794 10.3015C22.4966 10.331 22.5037 10.3652 22.4997 10.3991C22.4957 10.433 22.4808 10.4646 22.4572 10.4893L22.4428 10.5027L22.4427 10.5024ZM30.5179 28.4981L30.3284 28.5002C29.0637 28.5195 27.8106 28.2567 26.6601 27.7309C25.5884 27.2349 24.6925 26.4252 24.091 25.409C23.4844 24.4016 23.1731 23.1463 23.1574 21.6434L23.1568 21.521C23.1465 20.2599 23.4688 19.0183 24.0912 17.9215C24.714 16.8358 25.6222 15.9413 26.7171 15.3349L26.8113 15.2837C28.0017 14.6242 29.4398 14.2944 31.1252 14.2944L31.1988 14.2952L31.283 14.2979L31.3774 14.3021L31.4824 14.3082L31.6587 14.3207L31.8584 14.3367L32.0044 14.3495V8.93635C32.0044 8.80835 32.0595 8.74403 32.1692 8.74403H35.6315C35.6539 8.74082 35.6767 8.74287 35.6982 8.75001C35.7196 8.75716 35.7391 8.76921 35.7551 8.7852C35.7711 8.80119 35.7831 8.82069 35.7903 8.84215C35.7974 8.86361 35.7995 8.88644 35.7963 8.90883V25.148C35.7963 25.4207 35.8068 25.7144 35.828 26.0287L35.8792 26.7415L35.9064 27.1538C35.9097 27.2109 35.8958 27.2677 35.8664 27.3167C35.8369 27.3658 35.7934 27.4048 35.7414 27.4287C34.8482 27.8011 33.9179 28.0774 32.9662 28.2528C32.1582 28.402 31.3393 28.484 30.5179 28.4981V28.4981ZM32.0044 25.093V17.5917C31.8559 17.5515 31.7043 17.5239 31.5512 17.5093C31.364 17.4905 31.1759 17.4813 30.9878 17.4818C30.321 17.4752 29.6621 17.6258 29.0644 17.9215C28.4823 18.2108 27.9852 18.6464 27.6219 19.1855C27.2592 19.716 27.0715 20.4088 27.0592 21.2639L27.0585 21.3562C27.0451 21.9551 27.143 22.5513 27.347 23.1146C27.5131 23.5685 27.7757 23.981 28.1166 24.3237C28.4429 24.6389 28.8379 24.8741 29.2705 25.0106C29.7275 25.1586 30.2052 25.2328 30.6856 25.2306C30.9419 25.2306 31.18 25.2213 31.4 25.2029C31.5754 25.1897 31.7493 25.1608 31.9196 25.1165L32.0044 25.093V25.093Z" fill="#FF61F6"/>
</g>
<defs>
<clipPath id="clip0_406_48">
<rect width="40.96" height="40" fill="white" transform="translate(0.910156)"/>
</clipPath>
</defs>
</svg>
