<svg width="27" height="40" viewBox="0 0 27 40" fill="none" xmlns="http://www.w3.org/2000/svg">
<g clip-path="url(#clip0_406_42)">
<path d="M6.90849 40C10.5885 40 13.5752 37.0133 13.5752 33.3333V26.6666H6.90849C3.22849 26.6666 0.241821 29.6533 0.241821 33.3333C0.241821 37.0133 3.22849 40 6.90849 40Z" fill="#0ACF83"/>
<path d="M0.241821 20C0.241821 16.32 3.22849 13.3334 6.90849 13.3334H13.5752V26.6667H6.90849C3.22849 26.6667 0.241821 23.68 0.241821 20Z" fill="#A259FF"/>
<path d="M0.241821 6.66667C0.241821 2.98667 3.22849 0 6.90849 0H13.5752V13.3333H6.90849C3.22849 13.3333 0.241821 10.3467 0.241821 6.66667Z" fill="#F24E1E"/>
<path d="M13.5751 0H20.2417C23.9217 0 26.9084 2.98667 26.9084 6.66667C26.9084 10.3467 23.9217 13.3333 20.2417 13.3333H13.5751V0Z" fill="#FF7262"/>
<path d="M26.9084 20C26.9084 23.68 23.9217 26.6667 20.2417 26.6667C16.5617 26.6667 13.5751 23.68 13.5751 20C13.5751 16.32 16.5617 13.3334 20.2417 13.3334C23.9217 13.3334 26.9084 16.32 26.9084 20Z" fill="#1ABCFE"/>
</g>
<defs>
<clipPath id="clip0_406_42">
<rect width="26.67" height="40" fill="white" transform="translate(0.240112)"/>
</clipPath>
</defs>
</svg>
