<svg width="41" height="40" viewBox="0 0 41 40" fill="none" xmlns="http://www.w3.org/2000/svg">
<g clip-path="url(#clip0_407_51)">
<path d="M30.5564 37.5062C30.4076 37.585 30.4201 37.61 30.5626 37.5375C30.6065 37.5195 30.6468 37.4937 30.6814 37.4612C30.6814 37.435 30.6814 37.435 30.5564 37.5062V37.5062ZM30.8564 37.3437C30.7851 37.4025 30.7851 37.4025 30.8701 37.3637C30.9015 37.349 30.9303 37.3291 30.9551 37.305C30.9551 37.2712 30.9351 37.2787 30.8564 37.3437V37.3437ZM31.0514 37.2262C30.9801 37.285 30.9801 37.285 31.0651 37.2462C31.0967 37.2312 31.1254 37.2109 31.1501 37.1862C31.1501 37.155 31.1301 37.1612 31.0514 37.2262ZM31.2489 37.11C31.1776 37.1687 31.1776 37.1687 31.2601 37.1287C31.3064 37.1037 31.3451 37.0775 31.3451 37.07C31.3451 37.0387 31.3251 37.045 31.2489 37.11ZM31.5151 36.9337C31.3789 37.025 31.3314 37.0837 31.4564 37.0187C31.5401 36.9675 31.6826 36.855 31.6576 36.855C31.6039 36.875 31.5589 36.9087 31.5139 36.9337H31.5151ZM19.5614 0.0137041C19.4701 0.0199541 19.1964 0.0449541 18.9564 0.0649541C13.2714 0.579954 7.95262 3.63995 4.58137 8.3537C2.71832 10.939 1.50732 13.9361 1.05137 17.09C0.890117 18.19 0.870117 18.515 0.870117 20.0062C0.870117 21.4962 0.890117 21.8162 1.05137 22.9162C2.14012 30.43 7.48512 36.7375 14.7301 39.075C16.0339 39.4912 17.4001 39.7787 18.9564 39.955C19.5614 40.02 22.1776 40.02 22.7826 39.955C25.4726 39.655 27.7439 38.9912 29.9914 37.845C30.3364 37.67 30.4014 37.6237 30.3551 37.585C29.2587 36.1357 28.1716 34.6794 27.0939 33.2162L23.8976 28.9L19.8939 22.9687C18.5621 20.9828 17.2166 19.0061 15.8576 17.0387C15.8439 17.0387 15.8264 19.675 15.8189 22.89C15.8051 28.5212 15.8051 28.75 15.7339 28.88C15.6655 29.037 15.5431 29.1643 15.3889 29.2387C15.2651 29.2975 15.1539 29.31 14.5626 29.31H13.8864L13.7101 29.2C13.5997 29.1291 13.51 29.0304 13.4501 28.9137L13.3651 28.7375L13.3714 20.8987L13.3851 13.06L13.5089 12.9037C13.5879 12.8076 13.6852 12.7282 13.7951 12.67C13.9589 12.5912 14.0239 12.5787 14.7001 12.5787C15.4939 12.5787 15.6251 12.61 15.8339 12.8387C17.4558 15.251 19.0637 17.6728 20.6576 20.1037C23.2564 24.0437 26.8039 29.42 28.5476 32.0575L31.7189 36.8562L31.8751 36.7525C33.3992 35.7397 34.7803 34.5267 35.9814 33.1462C38.5008 30.2626 40.1356 26.7138 40.6901 22.925C40.8514 21.825 40.8714 21.4987 40.8714 20.0087C40.8714 18.5175 40.8514 18.1987 40.6901 17.0987C39.6014 9.58496 34.2564 3.27745 27.0114 0.938704C25.6573 0.509855 24.2637 0.217976 22.8514 0.0674541C22.4726 0.0287041 19.8876 -0.0175459 19.5626 0.0162041L19.5614 0.0137041ZM27.7451 12.11C27.8381 12.1556 27.9211 12.2194 27.9891 12.2975C28.0571 12.3756 28.1089 12.4666 28.1414 12.565C28.1751 12.67 28.1814 14.8437 28.1751 19.74L28.1614 26.77L26.9251 24.87L25.6814 22.9687V17.865C25.6814 14.5562 25.6951 12.7012 25.7126 12.61C25.7738 12.4007 25.9142 12.2236 26.1039 12.1162C26.2589 12.0375 26.3189 12.0312 26.9376 12.0312C27.5164 12.0312 27.6139 12.0375 27.7439 12.11H27.7451Z" fill="white"/>
</g>
<defs>
<clipPath id="clip0_407_51">
<rect width="40" height="40" fill="white" transform="translate(0.870117)"/>
</clipPath>
</defs>
</svg>
