<svg width="42" height="40" viewBox="0 0 42 40" fill="none" xmlns="http://www.w3.org/2000/svg">
<g clip-path="url(#clip0_406_36)">
<path d="M40.2643 0H13.5571V13.3908H26.6984C26.9233 13.3908 27.1389 13.4802 27.2979 13.6392C27.4569 13.7982 27.5463 14.0139 27.5463 14.2387V27.1986H41.1122V0.849524C41.1124 0.738038 41.0906 0.627605 41.0481 0.524545C41.0056 0.421485 40.9432 0.327822 40.8644 0.248916C40.7857 0.170009 40.6921 0.107409 40.5891 0.0646968C40.4862 0.0219848 40.3758 -1.95336e-07 40.2643 0V0Z" fill="#8E75FF"/>
<path opacity="0.405" d="M13.5555 0V13.3908H1.02657C0.94241 13.3906 0.860193 13.3655 0.790357 13.3185C0.720521 13.2715 0.666214 13.2049 0.634327 13.127C0.60244 13.0491 0.594411 12.9635 0.611258 12.881C0.628106 12.7985 0.669071 12.7229 0.728954 12.6638L13.5555 0ZM28.2686 39.8762C28.209 39.9348 28.1334 39.9745 28.0513 39.9902C27.9692 40.006 27.8842 39.9973 27.8071 39.965C27.7299 39.9327 27.6641 39.8784 27.6177 39.8088C27.5713 39.7393 27.5464 39.6576 27.5463 39.574V27.1986H41.1121L28.2686 39.8748V39.8763V39.8762ZM13.5555 13.3908H27.1231C27.2353 13.391 27.3428 13.4356 27.4221 13.5149C27.5015 13.5942 27.5461 13.7018 27.5463 13.814V27.1986H14.405C14.2936 27.1986 14.1834 27.1766 14.0805 27.134C13.9776 27.0914 13.8841 27.029 13.8054 26.9502C13.7267 26.8715 13.6642 26.778 13.6216 26.6751C13.579 26.5723 13.557 26.462 13.557 26.3506V13.3908H13.5555Z" fill="#8E75FF"/>
</g>
<defs>
<clipPath id="clip0_406_36">
<rect width="40.64" height="40" fill="white" transform="translate(0.600098)"/>
</clipPath>
</defs>
</svg>
