<svg width="67" height="40" viewBox="0 0 67 40" fill="none" xmlns="http://www.w3.org/2000/svg">
<g clip-path="url(#clip0_406_20)">
<path d="M33.25 0C24.3843 0 18.843 4.43299 16.6267 13.2987C19.9513 8.86571 23.8301 7.20338 28.263 8.31169C30.7921 8.9439 32.5999 10.779 34.601 12.8099C37.8607 16.1187 41.6332 19.9481 49.8734 19.9481C58.7391 19.9481 64.2804 15.5151 66.4968 6.64935C63.1721 11.0823 59.2934 12.7447 54.8604 11.6364C52.3313 11.0042 50.5236 9.16909 48.5225 7.13818C45.2628 3.82935 41.4903 0 33.25 0ZM16.6267 19.9481C7.76096 19.9481 2.21966 24.381 0.0032959 33.2468C3.32797 28.8138 7.20667 27.1514 11.6397 28.2597C14.1688 28.8919 15.9765 30.727 17.9776 32.7579C21.2373 36.0668 25.0098 39.8961 33.25 39.8961C42.1158 39.8961 47.6571 35.4631 49.8734 26.5974C46.5488 31.0304 42.67 32.6927 38.2371 31.5844C35.708 30.9522 33.9002 29.1171 31.8991 27.0862C28.6394 23.7774 24.8669 19.9481 16.6267 19.9481Z" fill="url(#paint0_linear_406_20)"/>
</g>
<defs>
<linearGradient id="paint0_linear_406_20" x1="-1.84389" y1="12.7668" x2="55.5841" y2="45.8787" gradientUnits="userSpaceOnUse">
<stop stop-color="#2298BD"/>
<stop offset="1" stop-color="#0ED7B5"/>
</linearGradient>
<clipPath id="clip0_406_20">
<rect width="66.5" height="40" fill="white"/>
</clipPath>
</defs>
</svg>
