<svg width="41" height="40" viewBox="0 0 41 40" fill="none" xmlns="http://www.w3.org/2000/svg">
<path d="M36.36 2.5H4.64C3.73425 2.5 3 3.23425 3 4.14V35.86C3 36.7657 3.73425 37.5 4.64 37.5H36.36C37.2657 37.5 38 36.7657 38 35.86V4.14C38 3.23425 37.2657 2.5 36.36 2.5Z" fill="#3178C6"/>
<path fill-rule="evenodd" clip-rule="evenodd" d="M23.3062 29.6988V33.5337C24.003 33.8777 24.7456 34.1197 25.5112 34.2525C26.396 34.4158 27.294 34.4962 28.1937 34.4925C29.0706 34.4967 29.9454 34.4083 30.8037 34.2287C31.5743 34.073 32.3096 33.7764 32.9725 33.3538C33.5879 32.9565 34.0951 32.4127 34.4487 31.7713C35.082 30.4429 35.1656 28.9183 34.6812 27.5288C34.4769 27.0091 34.1723 26.5347 33.785 26.1325C33.3692 25.7048 32.8969 25.336 32.3812 25.0362C31.7875 24.6885 31.1707 24.382 30.535 24.1188C30.035 23.9113 29.585 23.7096 29.185 23.5138C28.8297 23.3436 28.4897 23.1433 28.1687 22.915C27.9173 22.7388 27.699 22.5196 27.5237 22.2675C27.3723 22.0386 27.2935 21.7694 27.2975 21.495C27.2941 21.2425 27.3645 20.9944 27.5 20.7813C27.6471 20.5582 27.8434 20.3717 28.0737 20.2362C28.3553 20.0705 28.6617 19.951 28.9812 19.8825C29.3735 19.7954 29.7744 19.7534 30.1762 19.7575C30.5142 19.7587 30.8516 19.7829 31.1862 19.83C31.5476 19.8789 31.9051 19.9528 32.2562 20.0513C32.6134 20.1502 32.9627 20.2756 33.3012 20.4263C33.6298 20.5727 33.944 20.7493 34.24 20.9538V17.375C33.6239 17.1419 32.9849 16.9743 32.3337 16.875C31.5474 16.7606 30.7534 16.7067 29.9587 16.7138C29.0901 16.7091 28.2241 16.8077 27.3787 17.0075C26.6147 17.1821 25.8881 17.4924 25.2337 17.9238C24.6258 18.3287 24.1239 18.8735 23.77 19.5125C23.3949 20.2221 23.2094 21.0164 23.2312 21.8188C23.2035 22.8797 23.553 23.9162 24.2175 24.7438C25.0327 25.6614 26.0607 26.3648 27.2112 26.7925C27.7362 27.0092 28.2258 27.2213 28.68 27.4288C29.0898 27.6111 29.4836 27.8272 29.8575 28.075C30.159 28.2712 30.4239 28.5187 30.64 28.8063C30.83 29.0671 30.9308 29.3823 30.9275 29.705C30.9292 29.9468 30.8671 30.1848 30.7475 30.395C30.6146 30.6208 30.4277 30.8102 30.2037 30.9463C29.9234 31.1171 29.6168 31.2405 29.2962 31.3113C28.8787 31.4046 28.4516 31.4487 28.0237 31.4425C27.1841 31.441 26.3512 31.2929 25.5625 31.005C24.7385 30.7077 23.9744 30.2653 23.3062 29.6988V29.6988ZM16.8637 20.1513H21.8637V16.9925H7.92249V20.1513H12.9V34.2188H16.8637V20.1513Z" fill="white"/>
</svg>
