<svg width="30" height="40" viewBox="0 0 30 40" fill="none" xmlns="http://www.w3.org/2000/svg">
<g clip-path="url(#clip0_406_29)">
<path d="M0.423096 32.2505L0.665033 31.9118L12.1071 10.2008L12.1312 9.97092L7.08748 0.496621C6.66469 -0.296997 5.47495 -0.0963131 5.33637 0.79212L0.423096 32.2505Z" fill="#FFC24A"/>
<path d="M15.8084 17.1373L19.5639 13.2912L15.8072 6.11966C15.4506 5.4408 14.455 5.43874 14.1022 6.11966L12.095 9.94723V10.2732L15.8082 17.1373H15.8084Z" fill="#F4BD62"/>
<path d="M0.423096 32.2505L0.532725 32.1402L0.93113 31.9784L15.5724 17.3915L15.7579 16.8865L12.1055 9.92651L0.423096 32.2505Z" fill="#F6820C"/>
<path d="M16.2773 39.6069L29.5281 32.2169L25.7441 8.91267C25.6257 8.18355 24.7312 7.89535 24.2093 8.41808L0.423096 32.2504L13.5978 39.6063C14.0073 39.835 14.4685 39.9551 14.9375 39.9552C15.4065 39.9553 15.8677 39.8354 16.2773 39.6069" fill="#FDE068"/>
<path d="M29.4094 32.1549L25.6542 9.02764C25.5368 8.30399 24.7929 8.00462 24.2749 8.52348L0.57019 32.2051L13.6003 39.488C14.0067 39.7149 14.4643 39.8341 14.9298 39.8342C15.3952 39.8344 15.8529 39.7154 16.2594 39.4887L29.4095 32.1548L29.4094 32.1549Z" fill="#FCCA3F"/>
<path d="M16.2772 39.3892C15.8676 39.6176 15.4064 39.7375 14.9374 39.7374C14.4685 39.7373 14.0073 39.6172 13.5978 39.3886L0.529201 32.1385L0.423218 32.2505L13.5978 39.6064C14.0073 39.835 14.4685 39.9551 14.9375 39.9552C15.4065 39.9553 15.8677 39.8354 16.2773 39.607L29.5281 32.217L29.4956 32.0173L16.2773 39.3893L16.2772 39.3892Z" fill="#EEAB37"/>
</g>
<defs>
<clipPath id="clip0_406_29">
<rect width="29.18" height="40" fill="white" transform="translate(0.420044)"/>
</clipPath>
</defs>
</svg>
