<svg width="41" height="40" viewBox="0 0 41 40" fill="none" xmlns="http://www.w3.org/2000/svg">
<g clip-path="url(#clip0_406_40)">
<path d="M39.4857 18.218L22.0214 0.75458C21.0162 -0.251201 19.385 -0.251201 18.3785 0.75458L14.752 4.38114L19.3525 8.98161C20.4215 8.62036 21.6475 8.8627 22.4996 9.71489C23.3559 10.5725 23.5965 11.809 23.2265 12.8815L27.6601 17.3152C28.7328 16.9457 29.9704 17.1847 30.8271 18.0429C32.0245 19.2397 32.0245 21.1796 30.8271 22.3772C29.6295 23.575 27.6896 23.575 26.4914 22.3772C25.5907 21.4757 25.3682 20.153 25.8242 19.0435L21.6895 14.9088L21.689 25.7896C21.9887 25.9378 22.2625 26.1335 22.4996 26.3693C23.697 27.5661 23.697 29.5061 22.4996 30.7047C21.302 31.9019 19.3612 31.9019 18.1653 30.7047C16.9679 29.5061 16.9679 27.5663 18.1653 26.3694C18.4522 26.0823 18.7932 25.855 19.1685 25.7005V14.7183C18.7927 14.5649 18.4515 14.3374 18.1653 14.0494C17.2581 13.1435 17.04 11.8124 17.5048 10.6985L12.9698 6.16302L0.9948 18.1372C-0.0114502 19.144 -0.0114502 20.7754 0.9948 21.7813L18.4595 39.2451C19.465 40.251 21.0959 40.251 22.1026 39.2451L39.4856 21.8624C40.4915 20.8561 40.4915 19.2238 39.4856 18.218" fill="#DE4C36"/>
</g>
<defs>
<clipPath id="clip0_406_40">
<rect width="40" height="40" fill="white" transform="translate(0.240112)"/>
</clipPath>
</defs>
</svg>
