<svg width="46" height="40" viewBox="0 0 46 40" fill="none" xmlns="http://www.w3.org/2000/svg">
<g clip-path="url(#clip0_406_25)">
<path d="M37.4307 12.9515C36.9528 12.7876 36.4708 12.6356 35.9851 12.4959C36.0667 12.1626 36.1418 11.8333 36.2085 11.5098C37.3029 6.19734 36.5874 1.91751 34.1437 0.50839C31.8007 -0.842487 27.969 0.56611 24.0992 3.934C23.7178 4.26652 23.3449 4.60862 22.9807 4.95997C22.737 4.72633 22.4889 4.49723 22.2367 4.27278C18.1809 0.671724 14.1157 -0.845996 11.6746 0.567162C9.33373 1.92225 8.64057 5.94558 9.62584 10.9803C9.72386 11.479 9.83454 11.975 9.95777 12.468C9.38233 12.6315 8.82706 12.8056 8.29566 12.9908C3.54057 14.6487 0.503906 17.2468 0.503906 19.9417C0.503906 22.7251 3.76391 25.5168 8.71654 27.2096C9.11806 27.3463 9.52292 27.4729 9.93075 27.5894C9.7983 28.1204 9.68071 28.655 9.57812 29.1926C8.63882 34.14 9.37233 38.0682 11.7069 39.4147C14.1181 40.8052 18.1651 39.3761 22.1057 35.9314C22.4252 35.6513 22.7377 35.3633 23.0429 35.0677C23.4372 35.4481 23.842 35.8175 24.2569 36.1754C28.0741 39.46 31.8439 40.7863 34.1762 39.4361C36.5851 38.0415 37.3681 33.8216 36.3516 28.6873C36.2715 28.2851 36.1818 27.8849 36.0823 27.487C36.3665 27.4028 36.6455 27.3161 36.9174 27.2259C42.0662 25.5201 45.4162 22.7622 45.4162 19.9417C45.4162 17.237 42.2815 14.6214 37.4307 12.9515V12.9515ZM36.3141 25.4049C36.0685 25.4861 35.8165 25.5645 35.5597 25.6408C34.9913 23.8414 34.2243 21.928 33.2855 19.951C34.1813 18.0212 34.9188 16.1322 35.4713 14.3445C35.9307 14.4775 36.3765 14.6177 36.8064 14.7656C40.9625 16.1965 43.4976 18.3117 43.4976 19.9417C43.4976 21.6779 40.7597 23.9317 36.3141 25.4049V25.4049ZM34.4695 29.06C34.919 31.3301 34.983 33.3828 34.6853 34.9875C34.4179 36.4294 33.88 37.3907 33.2148 37.7758C31.7995 38.5951 28.7727 37.5301 25.5083 34.721C25.1224 34.3883 24.7458 34.0449 24.379 33.6912C25.6446 32.3072 26.9093 30.6982 28.1437 28.9112C30.315 28.7186 32.3662 28.4035 34.2264 27.9735C34.316 28.3337 34.397 28.6959 34.4695 29.06V29.06ZM15.8155 37.6342C14.4327 38.1224 13.3313 38.1365 12.6655 37.7526C11.2488 36.9356 10.6599 33.7814 11.4632 29.5505C11.5587 29.0505 11.668 28.5533 11.7911 28.0594C13.6307 28.4665 15.6671 28.7591 17.8434 28.9356C19.0862 30.6842 20.3874 32.2914 21.6988 33.6987C21.4201 33.9684 21.1348 34.2312 20.8432 34.4868C19.1006 36.01 17.3544 37.0907 15.8155 37.6342V37.6342ZM9.33724 25.3942C7.14724 24.6456 5.33864 23.6728 4.09899 22.6112C2.98496 21.6573 2.42268 20.7101 2.42268 19.9417C2.42268 18.3063 4.86075 16.2203 8.92724 14.8026C9.42075 14.6307 9.93724 14.4684 10.4732 14.3161C11.0353 16.1442 11.7725 18.0556 12.6622 19.9884C11.7609 21.9498 11.0132 23.8917 10.4457 25.7414C10.0734 25.6347 9.70381 25.519 9.33724 25.3942V25.3942ZM11.5088 10.6117C10.6648 6.29821 11.2253 3.04436 12.636 2.22769C14.1385 1.35786 17.4609 2.59804 20.9629 5.70751C21.1912 5.91074 21.4159 6.11808 21.6367 6.32944C20.3318 7.73067 19.0425 9.32593 17.8107 11.0642C15.6985 11.26 13.6765 11.5744 11.8176 11.9956C11.7031 11.537 11.6001 11.0756 11.5088 10.6119V10.6117ZM30.882 15.3956C30.4429 14.6371 29.9875 13.8883 29.5162 13.1494C30.9492 13.3307 32.3222 13.5712 33.6114 13.8652C33.2244 15.1059 32.742 16.403 32.1741 17.7328C31.759 16.9452 31.3282 16.166 30.882 15.3956V15.3956ZM22.9816 7.70067C23.8665 8.65944 24.7529 9.72979 25.6246 10.8912C23.8562 10.8077 22.0848 10.8073 20.3164 10.8901C21.189 9.73944 22.0829 8.6705 22.9816 7.70067ZM15.0306 15.4087C14.5899 16.1729 14.1672 16.9473 13.7627 17.7312C13.2041 16.4061 12.726 15.1031 12.3357 13.8449C13.6171 13.5582 14.9836 13.3238 16.4074 13.1459C15.9308 13.8893 15.4717 14.6437 15.0306 15.4086V15.4087ZM16.4483 26.874C14.9772 26.7098 13.5902 26.4875 12.3092 26.2086C12.7057 24.9279 13.1943 23.5972 13.765 22.2437C14.1711 23.0281 14.5956 23.803 15.0381 24.5675C15.4932 25.3535 15.9644 26.1233 16.4483 26.874ZM23.0346 32.3179C22.1251 31.3368 21.2181 30.2514 20.3323 29.084C21.1923 29.1177 22.069 29.1349 22.96 29.1349C23.8755 29.1349 24.7804 29.1144 25.6711 29.0747C24.7965 30.2631 23.9136 31.3501 23.0346 32.3179ZM32.1922 22.1745C32.7925 23.543 33.2985 24.8666 33.7002 26.1254C32.3981 26.4226 30.9922 26.6619 29.5107 26.8396C29.9854 26.0871 30.4451 25.3252 30.8895 24.5544C31.3413 23.7708 31.7757 22.9774 32.1922 22.1745V22.1745ZM29.2276 23.5958C28.5473 24.7776 27.8287 25.937 27.073 27.0721C25.7042 27.169 24.3323 27.2172 22.96 27.2165C21.5623 27.2165 20.2029 27.173 18.8937 27.088C18.1183 25.9556 17.3861 24.7941 16.6985 23.6063H16.6986C16.0143 22.4247 15.3751 21.2176 14.7823 19.9875C15.3735 18.7571 16.0108 17.5494 16.6929 16.367L16.6927 16.3672C17.3744 15.1844 18.1009 14.0279 18.8704 12.9003C20.206 12.7993 21.5757 12.7466 22.9599 12.7466H22.96C24.3506 12.7466 25.722 12.7998 27.0572 12.9015C27.819 14.0275 28.5408 15.18 29.2213 16.3568C29.9056 17.5367 30.5513 18.7385 31.1574 19.9603C30.5575 21.1947 29.9138 22.4072 29.2276 23.5958V23.5958ZM33.1855 2.1705C34.6893 3.03786 35.2743 6.53558 34.3293 11.1224C34.269 11.4151 34.2013 11.7131 34.1276 12.0154C32.2641 11.5852 30.2407 11.2654 28.1223 11.0666C26.8883 9.30927 25.6095 7.71155 24.3258 6.32839C24.6623 6.00409 25.0067 5.68821 25.3588 5.38102C28.6746 2.49558 31.7736 1.35629 33.1855 2.1705V2.1705ZM22.96 15.9312C25.175 15.9312 26.9706 17.7268 26.9706 19.9417C26.9706 22.1566 25.175 23.9523 22.96 23.9523C20.7451 23.9523 18.9495 22.1566 18.9495 19.9417C18.9495 17.7268 20.7451 15.9312 22.96 15.9312V15.9312Z" fill="#00D8FF"/>
</g>
<defs>
<clipPath id="clip0_406_25">
<rect width="44.92" height="40" fill="white" transform="translate(0.5)"/>
</clipPath>
</defs>
</svg>
