<svg width="40" height="40" viewBox="0 0 40 40" fill="none" xmlns="http://www.w3.org/2000/svg">
<path d="M20.2138 23.375C19.6125 23.6512 18.9538 24.0112 17.635 24.735C17.135 25.0162 16.6125 25.2975 16.1263 25.5625C16.0925 25.5287 16.0575 25.4862 16.0238 25.4512C13.415 22.6637 8.59004 20.695 8.79504 16.9512C8.87129 15.5875 9.34004 12.0075 18.0613 7.65997C25.2388 4.12247 30.95 5.10247 31.9363 7.27622C33.3538 10.375 28.875 16.1412 21.4625 16.9775C20.6422 17.1439 19.7949 17.1238 18.9833 16.9187C18.1717 16.7135 17.4166 16.3287 16.7738 15.7925C16.3813 15.3662 16.3225 15.3412 16.1775 15.4262C15.9388 15.5512 16.0925 15.9375 16.1775 16.1587C16.4603 16.6706 16.8428 17.1207 17.3025 17.4823C17.7622 17.8438 18.2897 18.1095 18.8538 18.2637C21.7708 18.8942 24.8121 18.593 27.5488 17.4025C32.0413 15.6637 35.5488 10.83 34.5213 6.77747C33.49 2.66872 26.67 1.31372 20.2175 3.60622C16.1766 4.96796 12.4432 7.1116 9.23004 9.91497C5.67504 13.24 5.11254 16.13 5.34254 17.34C6.17004 21.6362 12.0925 24.4325 14.4675 26.5037C14.3425 26.5725 14.2375 26.6287 14.1438 26.6825C12.9588 27.2712 8.44129 29.6325 7.31504 32.13C6.03629 34.96 7.52004 36.9887 8.50004 37.2612C9.9769 37.615 11.5274 37.4987 12.9349 36.9286C14.3425 36.3585 15.5369 35.363 16.3513 34.0812C17.0429 33.0183 17.4676 31.8041 17.5892 30.5419C17.7109 29.2796 17.5259 28.0066 17.05 26.8312C17.3308 26.6073 17.6302 26.4078 17.945 26.235C18.55 25.8775 19.1263 25.525 19.6375 25.2525C21.388 24.4325 23.2983 24.0104 25.2313 24.0162C29.2888 24.4937 30.09 27.025 29.9363 28.0912C29.8644 28.4695 29.7122 28.828 29.4902 29.1426C29.2681 29.4572 28.9812 29.7205 28.6488 29.915C28.3675 30.0937 28.2738 30.1537 28.2988 30.2812C28.3325 30.4687 28.4688 30.46 28.7075 30.4262C29.3172 30.2335 29.8542 29.861 30.2482 29.3575C30.6422 28.8539 30.8746 28.243 30.915 27.605C31.04 25.105 28.6563 22.3625 24.4363 22.3875C23.1727 22.3896 21.9217 22.6389 20.7538 23.1212C20.5663 23.1987 20.3842 23.2821 20.2075 23.3712L20.2138 23.375ZM14.1825 33.1737C12.835 34.64 10.96 35.1937 10.15 34.725C9.27504 34.225 9.62129 32.0562 11.275 30.505C12.2545 29.6225 13.3131 28.8321 14.4375 28.1437C14.6338 28.0187 14.9238 27.8537 15.2725 27.6437L15.3663 27.5925L15.5713 27.4675C15.8662 28.4563 15.8931 29.5058 15.649 30.5085C15.405 31.5112 14.8989 32.431 14.1825 33.1737V33.1737Z" fill="#CD6799"/>
</svg>
